<svg width="512" height="512" viewBox="0 0 512 512" xmlns="http://www.w3.org/2000/svg">
  <defs>
    <!-- Blue gradient for the background -->
    <linearGradient id="bgGradient" x1="0%" y1="0%" x2="100%" y2="100%">
      <stop offset="0%" style="stop-color:#4F46E5;stop-opacity:1" />
      <stop offset="100%" style="stop-color:#1E40AF;stop-opacity:1" />
    </linearGradient>
    
    <!-- Subtle inner gradient for depth -->
    <linearGradient id="bookGradient" x1="0%" y1="0%" x2="100%" y2="100%">
      <stop offset="0%" style="stop-color:#FFFFFF;stop-opacity:0.9" />
      <stop offset="100%" style="stop-color:#E0E7FF;stop-opacity:0.8" />
    </linearGradient>
  </defs>
  
  <!-- Background circle with gradient -->
  <circle cx="256" cy="256" r="240" fill="url(#bgGradient)" stroke="#1E3A8A" stroke-width="4"/>
  
  <!-- Book icon -->
  <g transform="translate(256, 256)">
    <!-- Book cover -->
    <rect x="-80" y="-100" width="160" height="200" rx="8" ry="8" fill="url(#bookGradient)" stroke="#1E3A8A" stroke-width="3"/>
    
    <!-- Book spine -->
    <rect x="-80" y="-100" width="20" height="200" rx="8" ry="8" fill="#1E40AF" opacity="0.3"/>
    
    <!-- Pages effect -->
    <rect x="-75" y="-95" width="150" height="5" fill="#F1F5F9" opacity="0.7"/>
    <rect x="-75" y="-85" width="150" height="5" fill="#F1F5F9" opacity="0.5"/>
    
    <!-- AI Symbol (circuit pattern) -->
    <g transform="translate(0, -30)" fill="#1E40AF" opacity="0.6">
      <circle cx="0" cy="0" r="3"/>
      <circle cx="-25" cy="-15" r="2"/>
      <circle cx="25" cy="-15" r="2"/>
      <circle cx="-25" cy="15" r="2"/>
      <circle cx="25" cy="15" r="2"/>
      
      <!-- Connecting lines -->
      <line x1="0" y1="0" x2="-25" y2="-15" stroke="#1E40AF" stroke-width="2" opacity="0.4"/>
      <line x1="0" y1="0" x2="25" y2="-15" stroke="#1E40AF" stroke-width="2" opacity="0.4"/>
      <line x1="0" y1="0" x2="-25" y2="15" stroke="#1E40AF" stroke-width="2" opacity="0.4"/>
      <line x1="0" y1="0" x2="25" y2="15" stroke="#1E40AF" stroke-width="2" opacity="0.4"/>
    </g>
    
    <!-- Text lines representing content -->
    <g fill="#1E40AF" opacity="0.4">
      <rect x="-60" y="10" width="120" height="3" rx="1"/>
      <rect x="-60" y="20" width="100" height="3" rx="1"/>
      <rect x="-60" y="30" width="110" height="3" rx="1"/>
      <rect x="-60" y="40" width="90" height="3" rx="1"/>
      <rect x="-60" y="50" width="120" height="3" rx="1"/>
      <rect x="-60" y="60" width="80" height="3" rx="1"/>
    </g>
  </g>
  
  <!-- Subtle highlight for 3D effect -->
  <circle cx="256" cy="256" r="240" fill="none" stroke="rgba(255,255,255,0.2)" stroke-width="2"/>
</svg>